<svg xmlns="http://www.w3.org/2000/svg" width="14" height="8" viewBox="0 0 14 8" fill="none">
  <g clip-path="url(#clip0_2424_217)">
    <path d="M9.30134e-07 0.984146C-1.3085e-05 0.789475 0.0575728 0.599174 0.165476 0.437307C0.273379 0.27544 0.426752 0.14928 0.606198 0.0747809C0.785645 0.000281811 0.983104 -0.0192099 1.1736 0.0187726C1.3641 0.0567546 1.53909 0.150504 1.67642 0.288164L7 5.62403L12.3236 0.288164C12.4147 0.196241 12.5229 0.123241 12.6422 0.0733519C12.7615 0.0234628 12.8895 -0.00233459 13.0187 -0.00256157C13.148 -0.00278854 13.276 0.0225601 13.3955 0.0720305C13.5149 0.121501 13.6235 0.194121 13.7149 0.285724C13.8062 0.377327 13.8787 0.486113 13.9281 0.605841C13.9774 0.72557 14.0027 0.853886 14.0025 0.983433C14.0023 1.11298 13.9765 1.24121 13.9267 1.36076C13.877 1.48032 13.8041 1.58885 13.7124 1.68013L7.69442 7.71169C7.60323 7.8031 7.49497 7.8756 7.37582 7.92507C7.25667 7.97454 7.12897 8 7 8C6.87103 8 6.74333 7.97454 6.62418 7.92507C6.50503 7.8756 6.39677 7.8031 6.30558 7.71169L0.287588 1.68013C0.196266 1.58883 0.123846 1.48034 0.0744926 1.3609C0.0251387 1.24146 -0.000176874 1.11342 9.30134e-07 0.984146Z" fill="#353B7C"/>
  </g>
  <defs>
    <clipPath id="clip0_2424_217">
      <rect width="8" height="14" fill="white" transform="matrix(0 -1 1 0 0 8)"/>
    </clipPath>
  </defs>
</svg>